<svg xmlns="http://www.w3.org/2000/svg" xmlns:xlink="http://www.w3.org/1999/xlink" width="828" zoomAndPan="magnify" viewBox="0 0 621 527.249983" height="703" preserveAspectRatio="xMidYMid meet" version="1.0"><defs><filter x="0%" y="0%" width="100%" height="100%" id="1819feeff0"><feColorMatrix values="0 0 0 0 1 0 0 0 0 1 0 0 0 0 1 0 0 0 1 0" color-interpolation-filters="sRGB"/></filter><clipPath id="6b06d6d5c3"><path d="M 617 265 L 620.234375 265 L 620.234375 350 L 617 350 Z M 617 265 " clip-rule="nonzero"/></clipPath><clipPath id="1c07966d22"><path d="M 617 222 L 620.234375 222 L 620.234375 251 L 617 251 Z M 617 222 " clip-rule="nonzero"/></clipPath><clipPath id="6363b588e8"><path d="M 617 182 L 620.234375 182 L 620.234375 211 L 617 211 Z M 617 182 " clip-rule="nonzero"/></clipPath><mask id="b22d818716"><g filter="url(#1819feeff0)"><rect x="-62.1" width="745.2" fill="#000000" y="-52.724998" height="632.69998" fill-opacity="0.7"/></g></mask><clipPath id="6ce4e5e716"><path d="M 0.210938 1 L 12 1 L 12 19 L 0.210938 19 Z M 0.210938 1 " clip-rule="nonzero"/></clipPath><clipPath id="c3d4a41685"><rect x="0" width="191" y="0" height="20"/></clipPath><clipPath id="72536ff462"><path d="M 308.703125 178 L 489 178 L 489 461.34375 L 308.703125 461.34375 Z M 308.703125 178 " clip-rule="nonzero"/></clipPath><clipPath id="095a78792e"><path d="M 23 443 L 32 443 L 32 453 L 23 453 Z M 23 443 " clip-rule="nonzero"/></clipPath><clipPath id="9bd9627517"><path d="M 0.4375 462.941406 L 15.191406 394.105469 L 311.042969 457.507812 L 296.292969 526.34375 Z M 0.4375 462.941406 " clip-rule="nonzero"/></clipPath><clipPath id="ebe420ed86"><path d="M 0.113281 462.871094 L 15.023438 393.304688 L 312.339844 457.019531 L 297.433594 526.585938 Z M 0.113281 462.871094 " clip-rule="nonzero"/></clipPath><clipPath id="7d61a81aca"><path d="M -150.011719 430.699219 L -69.820312 56.492188 L 381.28125 153.160156 L 301.089844 527.371094 Z M -150.011719 430.699219 " clip-rule="nonzero"/></clipPath><clipPath id="990a0821a5"><path d="M 23 461 L 33 461 L 33 470 L 23 470 Z M 23 461 " clip-rule="nonzero"/></clipPath><clipPath id="41be629bf2"><path d="M 0.4375 462.941406 L 15.191406 394.105469 L 311.042969 457.507812 L 296.292969 526.34375 Z M 0.4375 462.941406 " clip-rule="nonzero"/></clipPath><clipPath id="d7fe89afce"><path d="M 0.113281 462.871094 L 15.023438 393.304688 L 312.339844 457.019531 L 297.433594 526.585938 Z M 0.113281 462.871094 " clip-rule="nonzero"/></clipPath><clipPath id="42d63cbd50"><path d="M -150.011719 430.699219 L -69.820312 56.492188 L 381.28125 153.160156 L 301.089844 527.371094 Z M -150.011719 430.699219 " clip-rule="nonzero"/></clipPath><clipPath id="83658cc054"><path d="M 39 442 L 49 442 L 49 451 L 39 451 Z M 39 442 " clip-rule="nonzero"/></clipPath><clipPath id="17f98b02a5"><path d="M 0.4375 462.941406 L 15.191406 394.105469 L 311.042969 457.507812 L 296.292969 526.34375 Z M 0.4375 462.941406 " clip-rule="nonzero"/></clipPath><clipPath id="8892ad463c"><path d="M 0.113281 462.871094 L 15.023438 393.304688 L 312.339844 457.019531 L 297.433594 526.585938 Z M 0.113281 462.871094 " clip-rule="nonzero"/></clipPath><clipPath id="d427771962"><path d="M -150.011719 430.699219 L -69.820312 56.492188 L 381.28125 153.160156 L 301.089844 527.371094 Z M -150.011719 430.699219 " clip-rule="nonzero"/></clipPath><clipPath id="1817971dc7"><path d="M 42 459 L 51 459 L 51 469 L 42 469 Z M 42 459 " clip-rule="nonzero"/></clipPath><clipPath id="6657fcd496"><path d="M 0.4375 462.941406 L 15.191406 394.105469 L 311.042969 457.507812 L 296.292969 526.34375 Z M 0.4375 462.941406 " clip-rule="nonzero"/></clipPath><clipPath id="96e0f71faf"><path d="M 0.113281 462.871094 L 15.023438 393.304688 L 312.339844 457.019531 L 297.433594 526.585938 Z M 0.113281 462.871094 " clip-rule="nonzero"/></clipPath><clipPath id="813ceac448"><path d="M -150.011719 430.699219 L -69.820312 56.492188 L 381.28125 153.160156 L 301.089844 527.371094 Z M -150.011719 430.699219 " clip-rule="nonzero"/></clipPath><clipPath id="be355f509b"><path d="M 27 394 L 312 394 L 312 466 L 27 466 Z M 27 394 " clip-rule="nonzero"/></clipPath><clipPath id="a09d6afeb1"><path d="M 0.4375 462.941406 L 15.191406 394.105469 L 311.042969 457.507812 L 296.292969 526.34375 Z M 0.4375 462.941406 " clip-rule="nonzero"/></clipPath><clipPath id="fac6cc24b4"><path d="M 0.113281 462.871094 L 15.023438 393.304688 L 312.339844 457.019531 L 297.433594 526.585938 Z M 0.113281 462.871094 " clip-rule="nonzero"/></clipPath><clipPath id="9e5a6d804e"><path d="M -150.011719 430.699219 L -69.820312 56.492188 L 381.28125 153.160156 L 301.089844 527.371094 Z M -150.011719 430.699219 " clip-rule="nonzero"/></clipPath></defs><path fill="#00ffff" d="M 577.875 20.179688 L 401.199219 20.179688 L 369.386719 72.976562 L 369.386719 347.128906 L 608.28125 347.128906 L 608.28125 72.933594 Z M 577.875 20.179688 " fill-opacity="0.3" fill-rule="nonzero"/><g clip-path="url(#6b06d6d5c3)"><path fill="#00ffff" d="M 617.417969 265.09375 L 620.144531 265.09375 L 620.144531 349.371094 L 617.417969 349.371094 Z M 617.417969 265.09375 " fill-opacity="1" fill-rule="nonzero"/></g><g clip-path="url(#1c07966d22)"><path fill="#00ffff" d="M 617.417969 222.933594 L 620.144531 222.933594 L 620.144531 250.585938 L 617.417969 250.585938 Z M 617.417969 222.933594 " fill-opacity="1" fill-rule="nonzero"/></g><g clip-path="url(#6363b588e8)"><path fill="#00ffff" d="M 617.417969 182.796875 L 620.144531 182.796875 L 620.144531 210.449219 L 617.417969 210.449219 Z M 617.417969 182.796875 " fill-opacity="1" fill-rule="nonzero"/></g><path fill="#00ffff" d="M 569.789062 0.703125 L 569.394531 0 L 403.441406 0 L 361.960938 71.878906 L 361.785156 72.1875 L 361.785156 349.855469 L 611.046875 349.855469 L 611.046875 72.230469 Z M 608.28125 347.128906 L 364.511719 347.128906 L 364.511719 72.933594 L 398.078125 14.816406 L 574.753906 14.816406 L 608.28125 72.933594 Z M 608.28125 347.128906 " fill-opacity="1" fill-rule="nonzero"/><path fill="#00ffff" d="M 364.070312 357.0625 L 388.675781 428.238281 L 586.003906 428.238281 L 610.609375 357.0625 Z M 364.070312 357.0625 " fill-opacity="0.3" fill-rule="nonzero"/><g mask="url(#b22d818716)"><g transform="matrix(1, 0, 0, 1, 388, 371)"><g clip-path="url(#c3d4a41685)"><g clip-path="url(#6ce4e5e716)"><path fill="#00ffff" d="M 0.5 7.914062 L 0.457031 5.144531 L 1.6875 3.339844 L 2.960938 4.792969 L 3.003906 7.5625 L 1.6875 8.96875 Z M 3.3125 1.363281 L 7.574219 1.320312 L 9.070312 2.636719 L 7.882812 4 L 3.226562 4 L 1.949219 2.769531 Z M 3.53125 16.003906 L 8.191406 15.957031 L 9.640625 17.277344 L 8.453125 18.640625 L 3.402344 18.640625 L 2.125 17.410156 Z M 3.839844 8.046875 L 7.488281 8.046875 L 8.894531 9.496094 L 7.75 10.992188 L 3.753906 10.945312 L 2.523438 9.585938 Z M 8.804688 14.859375 L 8.804688 11.5625 L 9.902344 10.113281 L 11.351562 11.605469 L 11.398438 14.507812 L 10.210938 16.089844 Z M 8.804688 14.859375 " fill-opacity="1" fill-rule="nonzero"/></g><path fill="#00ffff" d="M 15.746094 14.859375 L 14.339844 16.089844 L 13.199219 14.507812 L 13.242188 11.605469 L 14.691406 10.113281 L 15.792969 11.5625 Z M 21.019531 16.003906 L 22.425781 17.410156 L 21.109375 18.640625 L 16.097656 18.640625 L 14.914062 17.277344 L 16.40625 15.957031 Z M 21.238281 1.363281 L 22.644531 2.769531 L 21.328125 4 L 16.671875 4 L 15.484375 2.636719 L 16.976562 1.320312 Z M 20.710938 8.046875 L 22.074219 9.585938 L 20.800781 10.945312 L 16.800781 10.992188 L 15.660156 9.496094 L 17.066406 8.046875 Z M 24.050781 7.914062 L 22.867188 9.011719 L 21.589844 7.605469 L 21.636719 4.835938 L 22.910156 3.386719 L 24.140625 5.1875 Z M 24.050781 7.914062 " fill-opacity="1" fill-rule="nonzero"/><path fill="#00ffff" d="M 28.839844 1.363281 L 33.101562 1.320312 L 34.597656 2.636719 L 33.410156 4 L 28.753906 4 L 27.480469 2.769531 Z M 33.9375 7.472656 L 34.027344 4.703125 L 35.125 3.253906 L 36.574219 4.792969 L 36.617188 7.695312 L 35.429688 9.144531 Z M 34.289062 16.882812 L 34.289062 11.519531 L 35.386719 10.066406 L 36.835938 11.5625 L 36.882812 16.53125 L 35.695312 18.113281 Z M 34.289062 16.882812 " fill-opacity="1" fill-rule="nonzero"/><path fill="#00ffff" d="M 42.109375 14.859375 L 45.582031 14.859375 L 45.582031 18.597656 L 42.109375 18.597656 Z M 42.109375 14.859375 " fill-opacity="1" fill-rule="nonzero"/><path fill="#00ffff" d="M 54.324219 1.363281 L 58.585938 1.320312 L 60.082031 2.636719 L 58.894531 4 L 54.238281 4 L 52.964844 2.769531 Z M 54.542969 16.003906 L 59.203125 15.957031 L 60.652344 17.277344 L 59.464844 18.640625 L 54.457031 18.640625 L 53.269531 17.410156 Z M 54.851562 8.046875 L 58.851562 8.046875 L 60.257812 9.496094 L 59.113281 10.992188 L 54.71875 10.945312 L 53.492188 9.585938 Z M 59.421875 7.472656 L 59.507812 4.703125 L 60.609375 3.253906 L 62.058594 4.792969 L 62.101562 7.695312 L 60.914062 9.144531 Z M 59.816406 14.859375 L 59.816406 11.5625 L 60.914062 10.113281 L 62.367188 11.605469 L 62.410156 14.507812 L 61.222656 16.089844 Z M 59.816406 14.859375 " fill-opacity="1" fill-rule="nonzero"/><path fill="#00ffff" d="M 156.347656 1.363281 L 160.613281 1.320312 L 162.105469 2.636719 L 160.917969 4 L 156.261719 4 L 154.988281 2.769531 Z M 156.523438 16.003906 L 161.183594 15.957031 L 162.632812 17.277344 L 161.445312 18.640625 L 156.4375 18.640625 L 155.25 17.410156 Z M 156.875 8.046875 L 160.875 8.046875 L 162.28125 9.496094 L 161.140625 10.992188 L 156.746094 10.945312 L 155.515625 9.585938 Z M 161.445312 7.472656 L 161.535156 4.703125 L 162.632812 3.253906 L 164.082031 4.792969 L 164.125 7.695312 L 162.941406 9.144531 Z M 161.796875 14.859375 L 161.796875 11.5625 L 162.894531 10.113281 L 164.347656 11.605469 L 164.390625 14.507812 L 163.203125 16.089844 Z M 161.796875 14.859375 " fill-opacity="1" fill-rule="nonzero"/><path fill="#00ffff" d="M 169.089844 1.363281 L 173.355469 1.320312 L 174.847656 2.636719 L 173.660156 4 L 169.003906 4 L 167.730469 2.769531 Z M 174.1875 7.472656 L 174.277344 4.703125 L 175.375 3.253906 L 176.824219 4.792969 L 176.867188 7.695312 L 175.683594 9.144531 Z M 174.539062 16.882812 L 174.539062 11.519531 L 175.636719 10.066406 L 177.089844 11.5625 L 177.132812 16.53125 L 175.945312 18.113281 Z M 174.539062 16.882812 " fill-opacity="1" fill-rule="nonzero"/><path fill="#00ffff" d="M 179.023438 7.914062 L 178.976562 3.429688 L 180.207031 1.628906 L 181.480469 3.078125 L 181.480469 7.605469 L 180.164062 9.011719 Z M 182.359375 8.046875 L 186.359375 8.046875 L 187.765625 9.496094 L 186.621094 10.992188 L 182.230469 10.945312 L 181 9.585938 Z M 186.929688 7.472656 L 187.0625 2.988281 L 188.160156 1.539062 L 189.609375 3.078125 L 189.65625 7.695312 L 188.46875 9.144531 Z M 187.28125 17.058594 L 187.28125 11.5625 L 188.378906 10.113281 L 189.832031 11.605469 L 189.832031 16.707031 L 188.644531 18.289062 Z M 187.28125 17.058594 " fill-opacity="1" fill-rule="nonzero"/></g></g></g><path fill="#00ffff" d="M 584.773438 411.445312 L 389.773438 411.445312 L 389.773438 397.421875 L 584.730469 397.421875 L 584.730469 411.445312 Z M 392.542969 408.71875 L 582.003906 408.71875 L 582.003906 400.191406 L 392.542969 400.191406 Z M 392.542969 408.71875 " fill-opacity="1" fill-rule="nonzero"/><path fill="#00ffff" d="M 390.960938 398.785156 L 500.808594 398.785156 L 500.808594 410.082031 L 390.960938 410.082031 Z M 390.960938 398.785156 " fill-opacity="1" fill-rule="nonzero"/><g clip-path="url(#72536ff462)"><path fill="#00ffff" d="M 485.957031 428.238281 L 485.957031 458.574219 L 307.128906 458.574219 L 254.839844 196.207031 C 258.09375 195.019531 260.507812 191.984375 260.726562 188.292969 C 261.035156 183.324219 257.214844 179.058594 252.25 178.753906 C 247.285156 178.445312 243.019531 182.269531 242.714844 187.238281 C 242.40625 192.203125 246.230469 196.46875 251.195312 196.777344 C 251.5 196.777344 251.808594 196.734375 252.117188 196.734375 L 304.84375 461.34375 L 488.722656 461.34375 L 488.722656 428.285156 L 485.957031 428.285156 Z M 485.957031 428.238281 " fill-opacity="1" fill-rule="nonzero"/></g><g clip-path="url(#095a78792e)"><g clip-path="url(#9bd9627517)"><g clip-path="url(#ebe420ed86)"><g clip-path="url(#7d61a81aca)"><path fill="#00ffff" d="M 31.046875 444.964844 L 30.257812 443.402344 C 26.792969 445.085938 24.226562 448.042969 23.039062 451.695312 L 24.722656 452.238281 C 25.765625 449.046875 28.023438 446.472656 31.046875 444.964844 Z M 31.046875 444.964844 " fill-opacity="1" fill-rule="nonzero"/></g></g></g></g><g clip-path="url(#990a0821a5)"><g clip-path="url(#41be629bf2)"><g clip-path="url(#d7fe89afce)"><g clip-path="url(#42d63cbd50)"><path fill="#00ffff" d="M 25.460938 461.789062 L 23.898438 462.574219 C 25.679688 466.011719 28.648438 468.535156 32.3125 469.679688 L 32.855469 468 C 29.652344 467 27.015625 464.816406 25.460938 461.789062 Z M 25.460938 461.789062 " fill-opacity="1" fill-rule="nonzero"/></g></g></g></g><g clip-path="url(#83658cc054)"><g clip-path="url(#17f98b02a5)"><g clip-path="url(#8892ad463c)"><g clip-path="url(#d427771962)"><path fill="#00ffff" d="M 48.972656 449.210938 C 47.132812 445.851562 44.050781 443.4375 40.359375 442.421875 L 39.902344 444.121094 C 43.132812 444.992188 45.820312 447.140625 47.488281 450.0625 Z M 48.972656 449.210938 " fill-opacity="1" fill-rule="nonzero"/></g></g></g></g><g clip-path="url(#1817971dc7)"><g clip-path="url(#6657fcd496)"><g clip-path="url(#96e0f71faf)"><g clip-path="url(#813ceac448)"><path fill="#00ffff" d="M 43.234375 468.652344 C 46.628906 466.863281 49.078125 463.835938 50.1875 460.121094 L 48.496094 459.625 C 47.539062 462.832031 45.390625 465.519531 42.445312 467.089844 Z M 43.234375 468.652344 " fill-opacity="1" fill-rule="nonzero"/></g></g></g></g><g clip-path="url(#be355f509b)"><g clip-path="url(#a09d6afeb1)"><g clip-path="url(#fac6cc24b4)"><g clip-path="url(#9e5a6d804e)"><path fill="#00ffff" d="M 320.777344 277.519531 L 350.4375 283.878906 L 312.964844 458.734375 L 45.464844 454.882812 C 44.984375 451.457031 42.527344 448.457031 38.960938 447.46875 C 34.167969 446.128906 29.199219 448.972656 27.855469 453.761719 C 26.515625 458.550781 29.363281 463.523438 34.15625 464.863281 C 38.949219 466.203125 43.917969 463.359375 45.261719 458.570312 C 45.324219 458.269531 45.347656 457.960938 45.410156 457.660156 L 315.195312 461.550781 L 353.726562 281.75 L 321.398438 274.824219 L 320.820312 277.53125 Z M 320.777344 277.519531 " fill-opacity="1" fill-rule="nonzero"/></g></g></g></g></svg>